# xmcd
#
# Track frame offsets:
#	150
#	48665
#	96358
#	132893
#	178708
#	216487
#	247764
#
# Disc length: 3573 seconds
#
# Revision: 0
# Processed by: cddbd v1.5.2PL0 Copyright (c) Steve Scherf et al.
# Submitted via: EZCDAudioConverter 3.0.8.1
#
DISCID=630df307
DTITLE=Mıhemed Şexo - Koçe Me Barkır
DYEAR=2001
DGENRE=Kurdish
TTITLE0=Derdan Dıljarkırın
TTITLE1=Koçe Me Barkır
TTITLE2=Daye Daye
TTITLE3=Ez Bum Ferar
TTITLE4=Welat Welat
TTITLE5=Vetnam and Kuba
TTITLE6=Wey Lıske
EXTD=
EXTT0=
EXTT1=
EXTT2=
EXTT3=
EXTT4=
EXTT5=
EXTT6=
PLAYORDER=
